<svg width="220" height="146" viewBox="0 0 220 146" fill="none" xmlns="http://www.w3.org/2000/svg">
<mask id="mask0_128_8561" style="mask-type:alpha" maskUnits="userSpaceOnUse" x="0" y="0" width="220" height="146">
<rect width="220" height="146" fill="#D9D9D9"/>
</mask>
<g mask="url(#mask0_128_8561)">
<g clip-path="url(#clip0_128_8561)">
<path d="M0 0H220V146H0V0Z" fill="white"/>
<path d="M33.7285 44.3345L54.0862 13.9475L59.1663 17.3176L38.8086 47.7046L33.7285 44.3345ZM41.3486 49.3897L61.7063 19.0027L66.7864 22.3728L46.4287 52.7598L41.3486 49.3897ZM48.9688 54.4449L69.3264 24.0579L74.4065 27.428L54.0489 57.815L48.9688 54.4449Z" fill="black"/>
<path d="M145.593 118.572L165.951 88.1848L171.031 91.5549L150.673 121.942L145.593 118.572ZM153.213 123.627L173.571 93.24L178.651 96.6101L158.293 126.997L153.213 123.627ZM160.834 128.682L181.191 98.2952L186.271 101.665L165.914 132.052L160.834 128.682Z" fill="black"/>
<path d="M153.22 101.683L178.644 118.555Z" fill="black"/>
<path d="M153.22 101.683L178.644 118.555" stroke="white" stroke-width="12.5"/>
<path d="M79.4917 52.7842C84.893 44.7215 93.286 39.1206 102.824 37.2136C112.363 35.3065 122.265 37.2496 130.353 42.6153C138.44 47.981 144.051 56.3298 145.951 65.825C147.851 75.3203 145.883 85.1842 140.482 93.2469L79.4917 52.7842Z" fill="#CD2E3A"/>
<path d="M79.5151 52.7663C74.1146 60.8275 72.1476 70.6897 74.047 80.1833C75.9463 89.6768 81.5564 98.0242 89.643 103.389C97.7297 108.754 107.63 110.696 117.167 108.79C126.704 106.883 135.096 101.283 140.496 93.2218C143.197 89.1912 144.18 84.2601 143.231 79.5133C142.281 74.7665 139.476 70.5928 135.433 67.9105C131.389 65.2281 126.439 64.2568 121.67 65.2101C116.902 66.1635 112.706 68.9634 110.006 72.994L79.5151 52.7663Z" fill="#0047A0"/>
<path d="M109.99 72.9897C115.612 64.5974 113.345 53.2665 104.926 47.6815C96.5074 42.0964 85.1248 44.3721 79.5025 52.7644C73.8801 61.1567 76.147 72.4875 84.5658 78.0726C92.9846 83.6577 104.367 81.382 109.99 72.9897Z" fill="#CD2E3A"/>
<path d="M54.0864 132.053L33.7288 101.666L38.8088 98.2956L59.1665 128.683L54.0864 132.053ZM61.7066 126.998L41.3489 96.6105L46.429 93.2404L66.7866 123.627L61.7066 126.998ZM69.3267 121.942L48.969 91.5553L54.0491 88.1852L74.4068 118.572L69.3267 121.942Z" fill="black"/>
<path d="M165.951 57.8154L145.593 27.4284L150.674 24.0583L171.031 54.4453L165.951 57.8154ZM173.571 52.7602L153.214 22.3732L158.294 19.0031L178.651 49.3901L173.571 52.7602ZM181.191 47.705L160.834 17.318L165.914 13.9479L186.272 44.3349L181.191 47.705Z" fill="black"/>
<path d="M50.2544 112.649L57.8815 107.588ZM153.221 44.3173L162.119 38.412ZM169.746 33.3504L177.373 28.2888Z" fill="black"/>
<path d="M50.2544 112.649L57.8815 107.588M153.221 44.3173L162.119 38.412M169.746 33.3504L177.373 28.2888" stroke="white" stroke-width="12.5"/>
</g>
</g>
<defs>
<clipPath id="clip0_128_8561">
<rect width="220" height="146" fill="white"/>
</clipPath>
</defs>
</svg>
