<?xml version="1.0" encoding="utf-8"?>
<!-- Generator: Adobe Illustrator 28.2.0, SVG Export Plug-In . SVG Version: 6.00 Build 0)  -->
<svg version="1.1" id="Layer_1" xmlns="http://www.w3.org/2000/svg" xmlns:xlink="http://www.w3.org/1999/xlink" x="0px" y="0px"
	 viewBox="0 0 4570 4570" enable-background="new 0 0 4570 4570" xml:space="preserve">
<g>
	<g>
		<path fill="#F3F6FD" d="M4107.3,400.6v3768.8c0,146.4-119.2,265.6-268.2,265.6H728.3c-146.4,0-265.7-119.2-265.7-265.6V400.6
			c0-146.4,119.2-265.6,265.7-265.6h3110.8C3988.2,135,4107.3,254.2,4107.3,400.6z"/>
		<g>
			<g>
				<path fill="#42C1F4" d="M2285.1,2847.3c-610.5,0-1107-496.5-1107-1106.9s496.5-1106.9,1107-1106.9
					c610.3,0,1106.8,496.5,1106.8,1106.9S2895.4,2847.3,2285.1,2847.3z M2285.1,819.8c-507.7,0-920.8,413-920.8,920.6
					s413.1,920.6,920.8,920.6s920.6-413,920.6-920.6S2792.8,819.8,2285.1,819.8z"/>
			</g>
			<g>
				<path fill="#42C1F4" d="M2285.1,2847.3c-610.5,0-1107-496.5-1107-1106.9c0-51.4,41.7-93.1,93.1-93.1s93.1,41.7,93.1,93.1
					c0,507.6,413.1,920.6,920.8,920.6s920.6-413,920.6-920.6s-412.9-920.6-920.6-920.6c-51.4,0-93.1-41.7-93.1-93.1
					s41.7-93.1,93.1-93.1c610.3,0,1106.8,496.5,1106.8,1106.9S2895.4,2847.3,2285.1,2847.3z"/>
			</g>
		</g>
		<g>
			<path fill="#71C687" d="M2130.1,2126.4L2130.1,2126.4c-24.7,0-48.5-9.8-65.9-27.3l-262.1-262.2c-36.4-36.4-36.1-95.3,0.2-131.7
				c36.4-36.4,95.3-36.4,131.7,0l196.1,196.4l529.8-529.9c36.4-36.4,95.5-36.4,131.9,0c36.1,36.4,36.1,95.3,0,131.7l-595.7,595.7
				C2178.6,2116.6,2154.9,2126.4,2130.1,2126.4z"/>
		</g>
	</g>
	<g>
		<rect x="971.6" y="3285.8" fill="#D1DCF8" width="2715.5" height="195.5"/>
		<rect x="971.6" y="3799" fill="#D1DCF8" width="1469.4" height="195.4"/>
	</g>
</g>
</svg>
