<svg width="68" height="68" viewBox="0 0 68 68" fill="none" xmlns="http://www.w3.org/2000/svg">
<g clip-path="url(#clip0_1703_623)">
<path d="M21.0928 60.306C18.1675 60.306 15.8083 57.9469 15.8083 55.0215V50.0673L15.4781 49.737L6.32458 33.223C4.90909 30.6751 5.80557 27.4667 8.35344 26.0512L39.8244 8.59354C42.3723 7.17805 45.5808 8.07453 46.9962 10.6696L56.9047 28.5047C56.9047 28.5047 57.0462 28.835 57.0462 28.9766V29.3068C59.9715 29.3068 62.3307 31.666 62.3307 34.5913V55.0215C62.3307 57.9469 59.9715 60.306 57.0462 60.306H21.0928ZM57.0934 57.8053C58.6504 57.8053 59.8772 56.5786 59.8772 55.0215V34.5913C59.8772 33.0343 58.6032 31.8075 57.0934 31.8075H21.0928C19.583 31.8075 18.309 33.0343 18.309 34.5913V55.0215C18.309 56.5314 19.5358 57.8053 21.0928 57.8053H57.0462H57.0934ZM23.4992 52.568C22.7914 52.568 22.2724 52.0018 22.2724 51.3413C22.2724 50.6807 22.8386 50.1145 23.4992 50.1145H55.2061C55.8666 50.1145 56.4328 50.6807 56.4328 51.3413C56.4328 52.0018 55.8666 52.568 55.2061 52.568H23.4992ZM23.4992 46.9061C22.7914 46.9061 22.2724 46.3399 22.2724 45.6321C22.2724 44.9244 22.8386 44.4054 23.4992 44.4054H46.9491C47.6096 44.4054 48.1758 44.9716 48.1758 45.6321C48.1758 46.2927 47.6096 46.9061 46.9491 46.9061H23.4992ZM15.8083 45.2075V40.1589L13.5907 41.2441L15.8083 45.2075ZM23.6407 41.6216C23.2632 41.6216 22.933 41.48 22.7442 41.2913C22.5555 41.1497 22.414 40.9138 22.3196 40.7723C22.1309 40.442 22.0837 40.0645 22.0837 39.7343V36.573C22.0837 36.2427 22.1309 35.8653 22.3196 35.535C22.414 35.3462 22.5555 35.1575 22.7442 35.016C22.933 34.8272 23.2632 34.6857 23.6407 34.6857H27.6041C27.9815 34.6857 28.3118 34.8272 28.5005 35.016C28.6893 35.2047 28.8308 35.3934 28.9252 35.535C29.1139 35.8653 29.1611 36.1955 29.1611 36.573V39.7343C29.1611 40.0645 29.1139 40.442 28.9252 40.7723C28.8308 40.9138 28.6893 41.1497 28.5005 41.2913C28.2646 41.48 27.9815 41.6216 27.6041 41.6216H23.6407ZM46.9491 41.6216C45.911 41.6216 45.1089 40.7723 45.1089 39.7814V36.6202C45.1089 35.5822 45.9582 34.7329 46.9491 34.7329H54.404C55.442 34.7329 56.2441 35.5822 56.2441 36.6202V39.7814C56.2441 40.8195 55.3948 41.6216 54.404 41.6216H46.9491ZM26.6604 39.1209V37.2336H24.5372V39.1209H26.6604ZM53.7434 39.1209V37.2336H47.5624V39.1209H53.7434ZM12.4112 39.0737L15.8083 37.3751V34.5913C15.8083 33.8836 15.9499 33.1758 16.233 32.5625L16.3745 32.2794L10.3823 35.4406L12.4112 39.0737ZM9.20274 33.223L45.9582 13.878L44.8258 11.8492C44.0709 10.528 42.3723 10.009 41.0512 10.764L9.5802 28.2216C8.25908 28.9766 7.74007 30.6751 8.49499 31.9963L9.15555 33.223H9.20274ZM30.1048 29.3068L49.3082 19.8703L47.185 16.0484L21.9893 29.3068H30.1048ZM54.4983 29.3068L50.4406 22.0407L35.6723 29.3068H54.4511H54.4983Z" fill="white"/>
</g>
<defs>
<clipPath id="clip0_1703_623">
<rect width="56.6667" height="52.373" fill="white" transform="translate(5.66602 7.93457)"/>
</clipPath>
</defs>
</svg>
