<svg width="68" height="68" viewBox="0 0 68 68" fill="none" xmlns="http://www.w3.org/2000/svg">
<g clip-path="url(#clip0_1703_564)">
<path d="M11.4243 66.3225C10.971 66.3225 10.5176 66.0051 10.3363 65.5518L4.62429 50.4104C4.39762 49.7758 4.71496 49.0958 5.30429 48.8691L11.7416 46.4664C12.3763 46.2398 13.0563 46.5571 13.283 47.1464L13.5096 47.7358C17.771 43.6558 22.7576 42.3864 29.059 44.7438C31.0536 45.5144 33.139 45.9224 35.3603 45.9224C38.2616 45.9224 41.0269 46.0131 42.9763 46.6024C43.9736 46.9198 44.8803 47.4185 45.515 48.2345C46.1496 49.0958 46.3763 50.1838 46.2403 51.3624C46.2403 51.7251 46.059 52.0878 45.8776 52.4051H45.8323L53.3123 49.9118C54.899 49.3678 56.8029 48.7331 58.4803 48.6878C60.2936 48.6878 61.9709 49.3224 63.0589 51.3171C63.6936 52.5864 63.6029 53.9011 62.6509 55.0345C61.9256 55.8958 60.7469 56.5305 59.2509 57.0291L58.6616 57.2105L44.3816 63.1491C44.3816 63.1491 44.3363 63.1491 44.291 63.1491C43.4296 63.4211 42.523 63.5571 41.5256 63.5571C40.755 63.5571 39.939 63.4665 39.0323 63.2851L38.2163 63.1038L25.8403 61.6985C24.6616 61.5625 22.0776 61.5171 19.7656 61.7891L18.9043 61.9251L19.0403 62.2425C19.267 62.8771 18.9496 63.5571 18.315 63.7838L11.923 66.1865C11.923 66.1865 11.6056 66.2771 11.4243 66.2771V66.3225ZM12.195 63.5571L16.3656 61.9705L16.275 61.7438L16.0936 61.4265V61.2905L11.923 50.2291V50.0931H11.8776L11.515 49.1411L7.34429 50.7278L12.195 63.6025V63.5571ZM41.2083 61.1998C41.9336 61.1998 42.523 61.1998 43.067 61.0185L43.475 60.8825L57.7549 54.9438C57.7549 54.9438 57.8456 54.9438 57.891 54.9438C59.5683 54.4451 60.3843 53.9011 60.7923 53.4931C61.0643 53.1758 61.1096 52.9038 60.883 52.4958C60.339 51.4531 59.5683 51.1358 58.4803 51.1811C57.2563 51.1811 55.8056 51.6798 54.0376 52.2691L45.515 55.1705L45.1976 55.3518C44.1096 55.8505 42.8403 56.0771 41.2989 55.5785L36.3123 53.9918L35.1336 53.7651C32.323 53.3118 29.7843 53.4478 28.4696 53.6745C27.7896 53.7651 27.2003 53.3118 27.1096 52.6771C27.019 51.9971 27.4723 51.4078 28.107 51.3171C29.6483 51.0904 32.4136 50.9545 35.4963 51.4531L36.7656 51.6798L38.1256 51.8158C39.4856 51.9065 40.7096 51.9518 41.707 51.8158C42.387 51.7705 42.8856 51.6344 43.2936 51.4984C43.5656 51.4078 43.7016 51.2718 43.7469 51.2718V50.9998C43.7923 50.4104 43.6563 50.0931 43.5203 49.8664C43.2936 49.5944 42.931 49.3224 42.1603 49.0958C40.6643 48.6424 38.3976 48.5518 35.2696 48.5064C32.7763 48.5064 30.3736 48.0531 28.107 47.1464C22.395 44.9704 18.179 46.3305 14.371 50.3198L17.9523 59.7944H18.043C20.9896 59.2051 24.571 59.2958 26.0216 59.4771L38.4883 60.8825C38.4883 60.8825 38.6243 60.8825 38.6696 60.8825C39.6216 61.1545 40.4376 61.2451 41.1176 61.2905L41.2083 61.1998ZM35.315 40.6638C29.5576 40.5278 23.891 37.8078 20.219 32.7758C13.963 24.2078 15.8216 12.1944 24.3896 5.93844C32.9576 -0.317559 44.971 1.54111 51.227 10.1091C57.483 18.6771 55.6243 30.6904 47.0563 36.9464C43.8376 39.3038 40.1656 40.4824 36.4483 40.6184C36.0403 40.6184 35.6776 40.6184 35.2696 40.6184L35.315 40.6638ZM35.3603 38.4424C35.6776 38.4424 36.0403 38.4424 36.3576 38.4424C39.6216 38.3064 42.8856 37.2638 45.7416 35.1784C53.267 29.6478 54.9443 19.0398 49.4136 11.4691C43.8829 3.89844 33.275 2.26644 25.7496 7.79711C18.179 13.3278 16.547 23.9358 22.0776 31.5064C25.2963 35.9491 30.283 38.3518 35.4056 38.4424H35.3603ZM36.0403 32.5038C35.451 32.5038 34.9523 32.0051 34.9523 31.4158V30.5998L32.867 30.1011C32.1416 29.8291 31.4163 29.5118 30.7816 29.0584C30.2376 28.6958 30.0563 27.9704 30.419 27.4264C30.7816 26.8824 31.507 26.7011 32.051 27.0638C32.5043 27.3811 33.003 27.6078 33.547 27.8344L34.907 28.1971V22.3944L33.6376 21.8504C33.1843 21.6238 32.7763 21.3518 32.3683 21.0798C31.235 20.2184 30.4643 18.9491 30.4643 17.1811C30.4643 14.7784 32.2776 13.1918 34.363 12.6931L34.8616 12.6024V11.5144C34.8616 10.9251 35.3603 10.4264 35.9496 10.4264C36.539 10.4264 37.0376 10.9251 37.0376 11.4691V12.5571L39.0323 13.1011C39.7576 13.4184 40.4376 13.8264 41.0723 14.3704C41.571 14.7784 41.6163 15.5491 41.2083 16.0478C40.755 16.5464 40.0296 16.5918 39.531 16.1838C39.123 15.8211 38.6696 15.5491 38.2163 15.3678L37.0376 15.0051V20.6718H37.083C38.0803 21.0344 39.2136 21.4424 40.075 22.0318C41.163 22.7571 42.0696 23.8451 42.0696 25.5224C42.0696 28.4238 40.1656 30.0558 37.8083 30.5544L37.0376 30.6904V31.4611C37.0376 32.0504 36.539 32.5491 35.9496 32.5491L36.0403 32.5038ZM37.1283 28.2878H37.4003C38.851 27.9251 39.7576 27.0638 39.7576 25.5224C39.7576 24.8878 39.4856 24.4344 38.851 24.0264C38.579 23.8451 38.307 23.7091 37.9443 23.5278L37.1283 23.2104V28.2878ZM34.9523 19.8104V15.0051L34.091 15.3224C33.3203 15.7304 32.9123 16.4104 32.9123 17.1811C32.9123 18.1331 33.275 18.7224 33.9096 19.1758L34.9523 19.7651V19.8104ZM23.619 18.6318C22.9843 18.6318 22.4856 18.1331 22.531 17.4984C22.5763 12.5118 27.7443 7.47978 32.5043 7.79711C33.139 7.84244 33.5923 8.38644 33.547 9.02111C33.5016 9.65578 32.9576 10.1091 32.323 10.0638C29.0136 9.79178 24.7976 13.7358 24.7523 17.4984C24.7523 18.1331 24.2536 18.6318 23.619 18.5864V18.6318Z" fill="#333333"/>
</g>
<defs>
<clipPath id="clip0_1703_564">
<rect width="58.9333" height="64.056" fill="white" transform="translate(4.5332 2.2666)"/>
</clipPath>
</defs>
</svg>
