<?xml version="1.0" encoding="utf-8"?>
<svg id="Layer_1" x="0" y="0" style="enable-background:new 0 0 597 80" version="1.1" viewBox="0 0 597 80" xmlns="http://www.w3.org/2000/svg">
  <style>.st1{fill:none}</style>
  <path d="M596.6 67c-4.2 0-8.1-2-10.5-5.4l-6.2-8.5c-2.8-3.9-7.4-6.2-12.2-6.2H369.5c-4.7 0-9.2 2.3-12 6l-6.6 8.9c-2.4 3.3-6.3 5.2-10.4 5.2h-14.8c-3.7 0-7.3-1.6-9.8-4.4l-6.6-7.5c-2-2.3-4.9-3.6-8-3.6h-1.5c-4.9 0-8.9 3.8-9 8.8-.1 3.8-3.2 6.8-7 6.8h-4.4c-2.2 0-3.9-1.7-4-3.9-.1-3.2-2.7-5.9-6-5.9H141.7c-3.2 0-5.9 2.6-5.9 5.9 0 2.1-1.7 3.9-3.9 3.9H26c-7.2 0-13-5.8-13-13V.1H0v80h597V67h-.4z"/>
  <path d="M 597.078 67 C 592.878 67 588.978 65 586.578 61.6 L 580.378 53.1 C 577.578 49.2 572.978 46.9 568.178 46.9 L 369.978 46.9 C 365.278 46.9 360.778 49.2 357.978 52.9 L 351.378 61.8 C 348.978 65.1 345.078 67 340.978 67 L 326.178 67 C 322.478 67 318.878 65.4 316.378 62.6 L 309.778 55.1 C 307.778 52.8 304.878 51.5 301.778 51.5 L 300.278 51.5 C 295.378 51.5 291.378 55.3 291.278 60.3 C 291.178 64.1 288.078 67.1 284.278 67.1 L 279.878 67.1 C 277.678 67.1 275.978 65.4 275.878 63.2 C 275.778 60 273.178 57.3 269.878 57.3 L 142.178 57.3 C 138.978 57.3 136.278 59.9 136.278 63.2 C 136.278 65.3 134.578 67.1 132.378 67.1 L 26.478 67.1 C 19.278 67.1 13.478 61.3 13.478 54.1 L 13.478 0.1 L 11.478 0.1 L 11.478 54.1 C 11.478 62.4 18.178 69.1 26.478 69.1 L 132.378 69.1 C 135.578 69.1 138.278 66.5 138.278 63.2 C 138.278 61.1 139.978 59.3 142.178 59.3 L 269.878 59.3 C 271.978 59.3 273.778 61 273.878 63.2 C 273.978 66.4 276.578 69.1 279.878 69.1 L 284.278 69.1 C 289.178 69.1 293.178 65.3 293.278 60.3 C 293.378 56.5 296.478 53.5 300.278 53.5 L 301.778 53.5 C 304.278 53.5 306.578 54.6 308.278 56.4 L 314.878 63.9 C 317.678 67.1 321.878 69 326.178 69 L 340.978 69 C 345.678 69 350.178 66.7 352.978 63 L 359.578 54.1 C 361.978 50.8 365.878 48.9 369.978 48.9 L 568.178 48.9 C 572.378 48.9 576.278 50.9 578.678 54.3 L 584.878 62.8 C 587.678 66.7 592.278 69 597.078 69 L 597.478 69 L 597.478 67 L 597.078 67 L 597.078 67 Z" style="fill: rgb(255, 255, 255);"/>
</svg>